<?xml version="1.0" standalone="no"?>
<!DOCTYPE svg PUBLIC "-//W3C//DTD SVG 20010904//EN"
 "http://www.w3.org/TR/2001/REC-SVG-20010904/DTD/svg10.dtd">
<svg version="1.0" xmlns="http://www.w3.org/2000/svg"
 width="980.000000pt" height="982.000000pt" viewBox="0 0 980.000000 982.000000"
 preserveAspectRatio="xMidYMid meet">
<metadata>
Created by potrace 1.16, written by Peter Selinger 2001-2019
</metadata>
<g transform="translate(0.000000,982.000000) scale(0.100000,-0.100000)"
fill="#000000" stroke="none">
<path d="M4329 9757 c-207 -130 -211 -134 -198 -159 6 -10 46 -66 90 -123 219
-289 315 -493 370 -790 17 -90 22 -165 26 -420 2 -170 1 -341 -4 -380 l-8 -70
-73 -3 c-40 -2 -155 6 -255 17 -775 86 -1373 81 -1869 -15 -252 -49 -404 -102
-693 -244 -679 -333 -1105 -775 -1400 -1455 -236 -542 -327 -1133 -312 -2030
8 -446 25 -605 98 -919 79 -339 165 -585 301 -857 272 -545 680 -986 1338
-1448 425 -299 802 -476 1314 -617 346 -96 863 -184 1246 -214 390 -30 1178
-22 1485 16 350 43 763 113 965 164 517 131 1085 407 1430 696 142 119 415
388 567 558 843 944 1111 1726 1043 3036 -54 1024 -260 1718 -674 2270 -92
123 -314 351 -441 453 -394 317 -862 510 -1418 582 -165 21 -529 37 -667 30
-63 -4 -258 -24 -432 -46 -175 -21 -335 -39 -356 -39 l-39 0 -58 193 c-160
531 -376 1002 -580 1262 -75 97 -256 279 -377 381 -109 91 -305 224 -331 224
-2 0 -42 -24 -88 -53z m-1783 -3652 c471 -518 773 -789 1199 -1079 183 -125
254 -179 255 -193 0 -15 -60 -27 -300 -63 -415 -61 -457 -65 -765 -64 -325 0
-421 11 -529 62 -120 57 -217 172 -258 305 -19 63 -20 85 -15 260 8 294 45
422 237 831 34 73 43 87 54 75 7 -8 61 -68 122 -134z m4860 23 c111 -221 179
-418 205 -593 6 -44 11 -161 11 -260 0 -205 -10 -244 -84 -356 -73 -109 -183
-173 -343 -200 -116 -20 -564 -17 -775 5 -244 24 -621 83 -673 104 -15 6 8 26
115 96 235 157 490 342 613 448 163 140 579 551 733 726 69 78 130 142 134
142 4 0 33 -51 64 -112z m-2207 -2168 c343 -514 346 -520 323 -520 -9 0 -73
11 -142 24 -178 35 -295 46 -485 46 -190 0 -307 -11 -485 -46 -69 -13 -133
-24 -142 -24 -22 0 -25 -5 288 465 326 492 332 499 351 483 9 -7 140 -200 292
-428z m-3409 -727 c278 -166 734 -345 1127 -444 l133 -33 25 -85 c79 -267 171
-445 245 -475 81 -32 439 -86 575 -86 l34 0 -2 231 c-2 220 -1 231 18 246 22
16 45 16 515 -8 241 -12 885 -6 1115 10 72 5 176 13 232 17 l102 7 12 -29 c14
-35 17 -263 6 -386 l-9 -88 74 0 c144 1 506 44 548 65 80 41 136 146 222 411
l62 191 95 23 c324 77 776 259 1106 444 44 25 81 41 83 36 6 -15 -57 -161
-125 -290 -162 -309 -398 -605 -668 -838 -401 -344 -814 -552 -1389 -697 -179
-45 -431 -87 -497 -83 l-52 3 -38 125 c-21 69 -62 199 -91 290 l-54 165 -249
3 c-138 2 -274 0 -302 -3 l-53 -6 -45 -142 c-45 -140 -83 -279 -105 -389 -13
-68 -4 -65 -159 -43 -219 32 -544 106 -716 162 -241 78 -584 246 -807 395
-411 274 -816 747 -1012 1182 -58 130 -74 176 -59 176 5 0 51 -25 103 -57z"/>
</g>
</svg>
