<?xml version="1.0" standalone="no"?>
<!DOCTYPE svg PUBLIC "-//W3C//DTD SVG 20010904//EN"
 "http://www.w3.org/TR/2001/REC-SVG-20010904/DTD/svg10.dtd">
<svg version="1.0" xmlns="http://www.w3.org/2000/svg"
 width="840.000000pt" height="1106.000000pt" viewBox="0 0 840.000000 1106.000000"
 preserveAspectRatio="xMidYMid meet">
<metadata>
Created by potrace 1.16, written by Peter Selinger 2001-2019
</metadata>
<g transform="translate(0.000000,1106.000000) scale(0.100000,-0.100000)"
fill="#000000" stroke="none">
<path d="M3460 10590 c-10 -47 -10 -83 -2 -163 7 -59 9 -194 6 -322 -3 -121
-7 -393 -10 -605 -4 -320 -17 -709 -38 -1083 -3 -57 -9 -75 -34 -111 -38 -53
-51 -106 -45 -188 l4 -63 -68 -30 c-53 -23 -85 -46 -144 -107 -82 -83 -165
-132 -246 -144 -25 -4 -81 -29 -135 -61 -51 -30 -126 -70 -167 -89 -40 -20
-96 -50 -125 -68 -28 -19 -83 -49 -121 -69 -135 -68 -372 -280 -507 -454 -44
-57 -121 -144 -172 -193 -54 -53 -105 -113 -121 -143 -45 -84 -72 -114 -149
-166 -101 -68 -121 -96 -142 -188 -20 -92 -38 -131 -94 -201 -47 -61 -89 -89
-185 -126 -178 -69 -195 -78 -271 -149 l-76 -71 7 -50 c4 -28 7 -62 6 -75 -2
-42 -46 -85 -147 -147 -234 -141 -319 -250 -250 -319 26 -26 83 -45 134 -45
44 0 42 -21 -8 -135 -52 -116 -58 -150 -32 -207 14 -33 29 -49 58 -63 82 -39
238 -35 334 9 30 13 66 26 80 28 l25 3 5 -116 c5 -114 6 -117 52 -210 26 -52
68 -145 94 -207 55 -134 94 -182 146 -182 80 0 100 100 52 261 -15 52 -28 117
-28 144 0 94 66 169 128 145 33 -12 36 -19 52 -118 15 -92 31 -117 68 -106 31
10 45 24 68 68 28 55 32 133 14 255 -17 113 -20 170 -8 187 4 6 21 14 37 18
47 11 132 74 171 127 38 52 86 173 110 277 8 36 28 91 45 123 16 33 36 92 43
132 32 162 158 494 230 603 26 38 52 63 92 85 42 24 66 48 103 103 27 39 68
89 91 110 38 35 130 86 155 86 6 0 48 23 95 50 69 41 94 50 132 50 38 0 50 -5
67 -26 20 -25 60 -138 76 -214 4 -19 57 -134 118 -255 107 -214 110 -222 115
-299 3 -43 0 -101 -6 -130 -6 -28 -16 -77 -21 -109 -7 -39 -23 -76 -51 -117
-60 -88 -127 -231 -161 -345 -16 -55 -50 -156 -74 -225 -55 -155 -86 -282
-125 -515 -17 -99 -37 -205 -45 -235 -7 -30 -16 -86 -20 -125 -3 -38 -13 -95
-20 -125 -7 -30 -23 -120 -35 -200 -30 -201 -63 -323 -104 -390 -19 -30 -66
-128 -105 -218 -40 -90 -99 -211 -131 -270 -33 -59 -84 -168 -113 -242 -30
-74 -65 -157 -79 -185 -34 -67 -143 -357 -174 -463 -13 -46 -24 -101 -24 -121
0 -21 -18 -129 -40 -242 -38 -193 -43 -208 -87 -284 -90 -153 -84 -132 -77
-300 7 -159 15 -189 68 -253 37 -43 193 -147 284 -189 92 -42 295 -94 372 -96
58 -1 157 27 390 108 69 24 157 49 197 54 97 15 149 39 283 134 173 122 187
126 409 127 135 0 199 -4 244 -16 51 -13 106 -15 327 -11 153 3 282 9 305 16
22 6 66 16 97 22 36 6 79 25 119 51 55 35 69 40 106 35 25 -3 70 -21 110 -45
89 -53 122 -58 203 -33 36 12 73 21 83 21 10 0 53 12 95 27 42 14 106 32 142
38 93 17 334 90 371 112 76 44 86 131 27 230 -18 32 -46 94 -62 138 -15 44
-44 109 -63 145 -38 71 -108 267 -154 428 -16 57 -36 116 -43 130 -16 31 -36
123 -66 297 -12 66 -35 160 -51 208 -35 101 -142 561 -189 807 -68 363 -74
385 -145 525 -36 72 -65 135 -65 140 0 23 -81 219 -118 287 -25 47 -53 123
-77 208 -20 74 -48 176 -62 225 -13 50 -55 160 -92 245 -38 85 -87 212 -110
282 -40 121 -42 132 -40 235 2 59 1 171 0 248 -4 158 15 272 54 340 12 22 28
67 35 100 6 33 20 91 31 130 15 55 19 103 19 228 0 133 3 164 18 189 12 21 23
28 37 24 11 -2 37 -9 59 -15 21 -5 53 -23 70 -39 89 -83 410 -309 515 -362 46
-23 102 -53 123 -67 25 -17 66 -31 116 -39 42 -7 113 -22 157 -33 112 -30 271
-39 327 -18 24 8 65 18 91 22 27 3 79 18 115 32 57 22 92 27 242 34 283 15
385 42 430 115 51 81 36 165 -60 329 -99 170 -160 324 -162 410 -1 57 15 93
79 178 33 42 51 57 69 57 57 0 131 66 209 188 72 113 85 148 78 214 l-6 57 74
116 c178 279 232 360 283 423 29 37 102 141 161 232 59 91 133 192 164 225 90
94 263 348 305 449 19 45 8 74 -36 101 l-30 17 -70 -68 c-38 -38 -106 -123
-151 -188 -45 -66 -128 -177 -184 -247 -102 -129 -401 -557 -505 -724 -31 -49
-73 -105 -92 -124 -35 -34 -38 -35 -147 -42 -104 -7 -118 -10 -196 -49 -80
-39 -118 -71 -203 -166 -20 -21 -85 -78 -145 -126 -61 -47 -164 -140 -230
-205 -66 -66 -135 -130 -153 -142 -19 -13 -61 -48 -95 -78 -76 -66 -99 -79
-160 -88 -84 -13 -151 2 -220 49 -34 23 -107 66 -162 95 -147 78 -216 122
-248 158 -15 17 -76 64 -135 104 -59 40 -138 98 -177 130 -86 70 -138 96 -222
114 -36 8 -66 15 -67 17 -1 2 -27 37 -58 78 -75 101 -76 104 -93 227 -9 59
-22 133 -30 164 -8 31 -15 65 -15 75 0 11 -25 73 -56 139 -31 66 -65 145 -75
175 -11 30 -37 85 -59 121 -25 42 -43 87 -49 125 -15 91 -171 514 -242 655
-21 42 -47 113 -59 158 -11 44 -36 116 -54 158 -19 43 -55 134 -81 203 -78
211 -172 390 -205 390 -4 0 -13 -27 -20 -60z m285 -750 c74 0 105 -35 58 -65
-23 -16 -24 -20 -18 -81 4 -35 4 -64 0 -64 -4 0 -30 16 -57 36 l-49 37 -45
-44 c-43 -42 -44 -42 -44 -17 0 14 -3 40 -6 57 -6 26 -11 31 -35 31 -25 0 -29
4 -29 28 0 25 6 31 39 42 35 11 41 18 52 59 6 25 14 50 17 54 2 5 23 -10 46
-32 30 -29 50 -41 71 -41z m140 -355 c52 -51 19 -145 -50 -145 -58 0 -91 69
-61 128 25 49 73 56 111 17z m4193 -88 c2 -10 -25 -66 -60 -124 -49 -82 -81
-122 -146 -181 -45 -41 -84 -73 -87 -71 -7 7 120 220 171 287 27 34 55 74 62
88 16 29 55 30 60 1z m-4458 -197 c29 -15 43 -71 30 -119 -26 -98 -130 -71
-130 34 0 72 48 113 100 85z m310 -192 c29 -68 24 -140 -13 -197 -24 -36 -82
-79 -93 -69 -2 2 8 36 21 74 15 44 27 106 31 167 8 109 16 113 54 25z m185
-360 c85 -18 134 -46 157 -91 19 -38 19 -41 3 -53 -14 -10 -23 -8 -52 12 -20
13 -47 24 -60 24 -37 0 -90 -26 -103 -50 -15 -29 -5 -85 21 -111 26 -26 56
-24 125 11 62 31 79 36 88 21 10 -16 -15 -185 -33 -226 -24 -55 -37 -62 -65
-36 -30 28 -57 27 -86 -4 -25 -26 -58 -33 -77 -14 -5 5 -25 18 -44 27 -27 13
-35 24 -37 50 -4 39 -15 41 -39 6 -44 -64 -59 -74 -115 -74 -50 0 -57 3 -95
43 -50 52 -58 76 -39 120 20 49 41 57 138 55 61 -1 94 3 126 16 40 17 42 20
42 62 0 61 -24 84 -90 84 -57 0 -104 -17 -153 -54 -19 -15 -45 -26 -59 -26
-89 0 -27 113 97 177 100 52 206 62 350 31z m289 -531 c7 -38 14 -51 37 -63
65 -33 77 -110 24 -164 -30 -31 -38 -50 -59 -145 -27 -117 -78 -279 -97 -301
-6 -7 -27 -16 -48 -20 -82 -13 -89 -22 -101 -121 -5 -35 -19 -85 -33 -111 -27
-52 -109 -122 -144 -122 -23 0 -86 53 -256 219 -146 142 -161 164 -167 236
l-5 60 -55 6 c-70 7 -90 18 -123 66 -41 59 -58 109 -48 135 5 13 14 43 21 68
8 27 25 56 46 75 l34 32 -17 46 c-9 25 -14 49 -10 53 11 11 37 -17 37 -39 0
-43 60 -83 86 -57 6 6 10 -8 9 -42 l0 -52 45 -8 c24 -4 70 -9 102 -12 65 -4
77 -11 119 -72 21 -31 29 -55 29 -86 1 -46 29 -115 30 -72 0 44 30 63 100 66
58 3 65 5 68 25 3 21 4 21 32 5 23 -13 33 -14 54 -4 47 21 31 65 -45 124 -9 7
-19 25 -23 40 -5 21 -2 28 13 33 46 14 28 88 -25 101 -26 7 -109 -19 -120 -37
-11 -19 6 -59 25 -59 24 0 44 -24 39 -47 -5 -26 -162 -36 -184 -12 -14 15 -12
20 18 44 30 24 31 26 8 19 -14 -3 -44 -18 -67 -31 -61 -35 -83 -26 -83 37 0
67 24 92 138 140 104 45 156 50 195 20 32 -25 58 -25 98 -1 38 23 60 17 120
-31 l41 -33 34 37 c22 25 34 48 34 66 0 36 8 44 40 40 21 -3 26 -10 34 -51z
m2657 -12 c18 -12 10 -64 -12 -76 -21 -11 -79 -8 -125 6 -24 7 -23 8 -93 -85
-26 -36 -57 -87 -67 -114 -20 -56 -67 -109 -90 -104 -22 4 -74 106 -74 143 0
63 19 104 63 134 23 16 60 36 82 45 22 10 49 25 60 35 11 11 29 21 40 25 24 6
202 -1 216 -9z m-521 -355 c0 -10 23 -80 51 -156 28 -77 53 -149 56 -161 5
-21 3 -22 -25 -12 -35 12 -57 59 -97 212 -12 48 -25 90 -28 93 -3 3 -24 -13
-47 -35 -34 -33 -43 -50 -48 -86 -5 -49 -8 -51 -35 -31 -15 12 -17 22 -11 61
5 38 15 55 46 84 74 68 138 82 138 31z m478 -44 c24 -14 13 -44 -18 -51 -26
-6 -28 -9 -17 -26 10 -16 9 -21 -3 -29 -23 -15 -69 -12 -101 7 -40 24 -34 47
15 51 37 3 38 4 17 18 -27 19 -27 33 1 43 22 8 85 0 106 -13z m-1845 -401 c42
-8 44 -11 21 -36 -13 -15 -14 -24 -5 -50 17 -48 15 -49 -34 -31 -43 16 -45 16
-68 -6 -32 -30 -37 -28 -37 17 0 31 -6 43 -27 59 l-26 19 30 11 c23 7 34 20
43 48 l13 38 26 -31 c17 -20 39 -34 64 -38z m-896 -480 c48 -20 71 -41 93 -85
40 -81 32 -168 -22 -234 -16 -20 -33 -36 -37 -36 -4 0 -5 42 -3 94 5 108 -10
169 -59 235 -32 45 -27 49 28 26z m-693 -403 c54 -48 73 -170 37 -240 -20 -39
-77 -99 -86 -90 -3 3 2 34 11 69 26 101 15 163 -54 302 -6 12 70 -22 92 -41z
m-1787 -214 c63 -44 83 -120 33 -126 -53 -6 -144 88 -127 131 9 24 55 21 94
-5z m2408 -172 c108 -45 72 -226 -45 -226 -116 0 -152 172 -46 224 39 19 48
20 91 2z m-2683 -365 c32 -33 39 -46 36 -73 -3 -30 -6 -33 -41 -36 -33 -3 -43
2 -78 36 -28 28 -39 48 -39 69 0 38 6 43 48 43 27 0 43 -9 74 -39z m1921 -107
c85 -40 112 -48 201 -57 88 -9 104 -14 112 -31 14 -32 122 -35 172 -5 33 19
55 23 188 27 198 6 380 -5 399 -25 17 -16 19 -41 6 -62 -8 -12 -68 -14 -367
-12 -343 2 -364 4 -523 31 -91 16 -191 35 -221 43 -30 8 -57 13 -58 11 -11 -9
61 -117 117 -176 80 -85 149 -131 331 -222 193 -95 306 -140 463 -182 125 -33
137 -39 291 -135 185 -116 294 -201 302 -236 8 -29 -10 -73 -28 -73 -7 0 -71
42 -141 94 -171 124 -247 162 -467 236 -222 75 -297 109 -415 187 -49 32 -146
92 -215 132 -110 64 -140 88 -246 196 -89 90 -129 139 -153 185 -37 75 -38 83
-10 111 20 20 29 21 93 15 54 -5 94 -17 169 -52z m-2116 -521 c25 -18 29 -29
35 -94 6 -56 18 -95 49 -161 36 -77 41 -97 42 -160 1 -140 -31 -162 -58 -40
-29 131 -62 176 -139 189 -32 5 -40 2 -69 -29 -17 -19 -45 -60 -61 -92 -29
-57 -29 -58 -22 -181 3 -68 13 -158 22 -200 18 -86 14 -116 -13 -94 -43 36
-203 422 -203 491 0 41 19 87 89 211 83 147 98 166 141 177 60 15 156 7 187
-17z m3161 -813 c35 -22 62 -72 62 -116 0 -67 -62 -134 -125 -134 -93 1 -155
113 -110 200 35 68 108 89 173 50z m-921 -735 c52 -60 8 -125 -82 -125 -27 0
-44 8 -66 29 -31 31 -35 51 -19 81 29 55 126 63 167 15z m1282 -925 c186 -95
193 -458 11 -563 l-31 -19 19 39 c88 173 62 378 -65 514 l-46 49 37 0 c20 0
54 -9 75 -20z m-2189 -386 c28 -24 35 -26 67 -16 28 9 42 8 63 -3 50 -26 51
-35 19 -103 -32 -66 -54 -86 -107 -97 -27 -6 -37 -2 -67 26 -64 60 -81 153
-38 201 21 24 26 23 63 -8z"/>
</g>
</svg>
